<?xml version="1.0" standalone="no"?><!DOCTYPE svg PUBLIC "-//W3C//DTD SVG 1.1//EN" "http://www.w3.org/Graphics/SVG/1.1/DTD/svg11.dtd"><svg t="1743505126555" class="icon" viewBox="0 0 1024 1024" version="1.1" xmlns="http://www.w3.org/2000/svg" p-id="1455" xmlns:xlink="http://www.w3.org/1999/xlink" width="200" height="200"><path d="M714.112 464h-289.6L546.24 342.208a48.64 48.64 0 0 0 0.96-68.736 48.64 48.64 0 0 0-68.8 0.832L275.84 476.928c-0.448 0.384-1.024 0.512-1.472 0.96a47.36 47.36 0 0 0-13.696 34.624c0 12.224 4.48 24.448 13.76 33.664 0.384 0.384 0.896 0.512 1.28 0.832L478.4 749.696c19.264 19.2 50.048 19.648 68.8 0.896a48.64 48.64 0 0 0-0.96-68.736L424.448 560h289.664c27.2 0 49.28-21.504 49.28-48s-22.08-48-49.28-48z" fill="#707070" p-id="1456"></path><path d="M512 32C246.848 32 32 246.848 32 512s214.848 480 480 480 480-214.848 480-480S777.152 32 512 32z m0 864a384 384 0 1 1 0-768 384 384 0 0 1 0 768z" fill="#707070" p-id="1457"></path></svg>